<?xml version="1.0" encoding="UTF-8" standalone="no"?>
<!DOCTYPE svg PUBLIC "-//W3C//DTD SVG 1.1//EN"
 "http://www.w3.org/Graphics/SVG/1.1/DTD/svg11.dtd">
<!-- Generated by graphviz version 2.47.3 (20210619.1520)
 -->
<!-- Title: dependencies Pages: 1 -->
<svg width="484pt" height="247pt"
 viewBox="0.00 0.00 484.00 246.80" xmlns="http://www.w3.org/2000/svg" xmlns:xlink="http://www.w3.org/1999/xlink">
<g id="graph0" class="graph" transform="scale(1 1) rotate(0) translate(4 242.8)">
<title>dependencies</title>
<polygon fill="white" stroke="transparent" points="-4,4 -4,-242.8 480,-242.8 480,4 -4,4"/>
<text text-anchor="middle" x="238" y="-8.2" font-family="sans-serif" font-size="14.00">dependencies</text>
<g id="clust1" class="cluster">
<title>cluster_AppModule</title>
<polygon fill="none" stroke="black" stroke-dasharray="1,5" points="8,-32.8 8,-230.8 468,-230.8 468,-32.8 8,-32.8"/>
</g>
<g id="clust2" class="cluster">
<title>cluster_AppModule_declarations</title>
<polygon fill="none" stroke="black" points="168,-40.8 168,-92.8 460,-92.8 460,-40.8 168,-40.8"/>
</g>
<g id="clust5" class="cluster">
<title>cluster_AppModule_imports</title>
<polygon fill="none" stroke="black" points="16,-40.8 16,-92.8 160,-92.8 160,-40.8 16,-40.8"/>
</g>
<g id="clust7" class="cluster">
<title>cluster_AppModule_bootstrap</title>
<polygon fill="none" stroke="black" points="190,-170.8 190,-222.8 314,-222.8 314,-170.8 190,-170.8"/>
</g>
<!-- AppComponent -->
<g id="node1" class="node">
<title>AppComponent</title>
<polygon fill="#ffffb3" stroke="black" points="451.94,-84.8 346.06,-84.8 346.06,-48.8 451.94,-48.8 451.94,-84.8"/>
<text text-anchor="middle" x="399" y="-62.6" font-family="Times,serif" font-size="14.00">AppComponent</text>
</g>
<!-- AppModule -->
<g id="node3" class="node">
<title>AppModule</title>
<polygon fill="#8dd3c7" stroke="black" points="293.66,-149.8 290.66,-153.8 269.66,-153.8 266.66,-149.8 210.34,-149.8 210.34,-113.8 293.66,-113.8 293.66,-149.8"/>
<text text-anchor="middle" x="252" y="-127.6" font-family="Times,serif" font-size="14.00">AppModule</text>
</g>
<!-- AppComponent&#45;&gt;AppModule -->
<g id="edge1" class="edge">
<title>AppComponent&#45;&gt;AppModule</title>
<path fill="none" stroke="black" d="M399,-84.91C399,-104.14 399,-131.8 399,-131.8 399,-131.8 303.73,-131.8 303.73,-131.8"/>
<polygon fill="black" stroke="black" points="303.73,-128.3 293.73,-131.8 303.73,-135.3 303.73,-128.3"/>
</g>
<!-- MenuPaginaComponent -->
<g id="node2" class="node">
<title>MenuPaginaComponent</title>
<polygon fill="#ffffb3" stroke="black" points="328.09,-84.8 175.91,-84.8 175.91,-48.8 328.09,-48.8 328.09,-84.8"/>
<text text-anchor="middle" x="252" y="-62.6" font-family="Times,serif" font-size="14.00">MenuPaginaComponent</text>
</g>
<!-- MenuPaginaComponent&#45;&gt;AppModule -->
<g id="edge2" class="edge">
<title>MenuPaginaComponent&#45;&gt;AppModule</title>
<path fill="none" stroke="black" d="M252,-84.91C252,-84.91 252,-103.79 252,-103.79"/>
<polygon fill="black" stroke="black" points="248.5,-103.79 252,-113.79 255.5,-103.79 248.5,-103.79"/>
</g>
<!-- AppComponent  -->
<g id="node5" class="node">
<title>AppComponent </title>
<polygon fill="#80b1d3" stroke="black" points="306.44,-214.8 197.56,-214.8 197.56,-178.8 306.44,-178.8 306.44,-214.8"/>
<text text-anchor="middle" x="252" y="-192.6" font-family="Times,serif" font-size="14.00">AppComponent </text>
</g>
<!-- AppModule&#45;&gt;AppComponent  -->
<g id="edge4" class="edge">
<title>AppModule&#45;&gt;AppComponent </title>
<path fill="none" stroke="black" stroke-dasharray="1,5" d="M252,-149.91C252,-149.91 252,-168.79 252,-168.79"/>
<polygon fill="black" stroke="black" points="248.5,-168.79 252,-178.79 255.5,-168.79 248.5,-168.79"/>
</g>
<!-- AppRoutingModule -->
<g id="node4" class="node">
<title>AppRoutingModule</title>
<polygon fill="#8dd3c7" stroke="black" points="152.27,-84.8 149.27,-88.8 128.27,-88.8 125.27,-84.8 23.73,-84.8 23.73,-48.8 152.27,-48.8 152.27,-84.8"/>
<text text-anchor="middle" x="88" y="-62.6" font-family="Times,serif" font-size="14.00">AppRoutingModule</text>
</g>
<!-- AppRoutingModule&#45;&gt;AppModule -->
<g id="edge3" class="edge">
<title>AppRoutingModule&#45;&gt;AppModule</title>
<path fill="none" stroke="black" d="M88,-84.91C88,-104.14 88,-131.8 88,-131.8 88,-131.8 200.19,-131.8 200.19,-131.8"/>
<polygon fill="black" stroke="black" points="200.19,-135.3 210.19,-131.8 200.19,-128.3 200.19,-135.3"/>
</g>
</g>
</svg>
